# xmcd
#
# Track frame offsets:
#	150
#	18997
#	31047
#	46760
#	59435
#	72447
#	90122
#	104315
#	118197
#	137207
#	150072
#	169225
#	183897
#	197447
#	214605
#	225622
#	236659
#	249147
#	266197
#	282972
#	298347
#	314544
#
# Disc length: 4389 seconds
# Revision: 4
# Processed by: cddbd v1.5.2PL0 Copyright (c) Steve Scherf et al.
# Submitted via: dBpowerAMP V12.0
#
DISCID=2d112316
DTITLE=Various Artist - The All Time Greatest Country Songs, Disc 2
DYEAR=1997
DGENRE=Country
TTITLE0=Kenny Rogers with Dolly Parton - Islands in the Stream
TTITLE1=Dolly Parton - Jolene
TTITLE2=Tanya Tucker - Down to My Last Teardrop
TTITLE3=LeAnn Rimes - Blue
TTITLE4=Mary Chapin Carpenter - Let Me into Your Heart
TTITLE5=Judds, The - Love Can Build a Bridge
TTITLE6=Elvis Costello and the Attractions - A Good Year for the Roses
TTITLE7=Don Williams - I'm Just a Country Boy
TTITLE8=Nanci Griffith - From a Distance
TTITLE9=Bobby Bare - Detroit City
TTITLE10=Bobbie Gentry - Ode to Billy Joe
TTITLE11=Bellamy Brothers, The - If I Said You Had a Beautiful Body (Would You Hold It Against Me)
TTITLE12=Kenny Rogers - I Will Always Love You
TTITLE13=Mac Davis - Memories
TTITLE14=Neil Diamond - Kentucky Woman
TTITLE15=Roger Miller - King of the Road
TTITLE16=Johnny Cash And June Carter - Jackson
TTITLE17=Johnny Cash - Riders in the Sky
TTITLE18=Tony Joe White - Polk Salad Annie
TTITLE19=Billy Ray Cyrus - Achy Breaky Heart
TTITLE20=Charlie Daniels Band, The - The Devil Went Down to Georgia
TTITLE21=Eric Weissberg and Steve Mandell - Duelling Banjos Based on "Feudin' Banjos"
EXTD=
EXTT0=
EXTT1=
EXTT2=
EXTT3=
EXTT4=
EXTT5=
EXTT6=
EXTT7=
EXTT8=
EXTT9=
EXTT10=
EXTT11=
EXTT12=
EXTT13=
EXTT14=
EXTT15=
EXTT16=
EXTT17=
EXTT18=
EXTT19=
EXTT20=
EXTT21=
PLAYORDER=
